<?xml version="1.0" encoding="UTF-8"?>
<svg version="1.1" xmlns="http://www.w3.org/2000/svg" width="512" height="512">
<path d="M0 0 C3.55964252 2.50493363 6.10891335 5.18626275 8.53125 8.78125 C9.3975 9.9259375 9.3975 9.9259375 10.28125 11.09375 C14.26094508 19.65009441 14.2478811 28.54100771 11.34375 37.40625 C8.55500048 42.59909393 5.09157871 46.98209547 1.234375 51.4296875 C-15.67544697 71.0177732 -25.30294123 93.7746747 -25.78515625 119.87109375 C-25.8163279 121.2878817 -25.8163279 121.2878817 -25.84812927 122.73329163 C-25.91312354 125.72837573 -25.972275 128.72354193 -26.03125 131.71875 C-26.07448297 133.75847178 -26.11809873 135.79818548 -26.16210938 137.83789062 C-26.26875305 142.81892788 -26.3701594 147.8000471 -26.46875 152.78125 C-23.9161575 150.87047088 -21.36426954 148.95875297 -18.8125 147.046875 C-18.09545898 146.5101416 -17.37841797 145.9734082 -16.63964844 145.42041016 C-12.72553394 142.48706348 -8.83686994 139.52517168 -4.96875 136.53125 C-0.66134934 133.42395344 3.81194102 130.88167985 8.53125 128.46875 C9.15966797 128.14293945 9.78808594 127.81712891 10.43554688 127.48144531 C19.54727777 123.00018974 28.60744096 121.23565852 38.71875 121.34375 C40.21595581 121.35402222 40.21595581 121.35402222 41.7434082 121.36450195 C68.94885267 121.94827224 92.34226905 136.19483089 110.91796875 155.2265625 C116.00894887 160.74107067 120.48310176 166.46445202 124.53125 172.78125 C125.09779297 173.66031006 125.09779297 173.66031006 125.67578125 174.55712891 C132.80934555 185.75286176 138.11453158 197.27447882 142.53125 209.78125 C142.81484375 210.57869629 143.0984375 211.37614258 143.390625 212.19775391 C154.60605774 244.48841314 155.64300571 280.2970829 149.53125 313.78125 C149.37027832 314.70244629 149.20930664 315.62364258 149.04345703 316.57275391 C138.90986532 373.45130951 115.35059738 432.03550608 74.53125 473.78125 C73.79777344 474.57660156 73.06429688 475.37195313 72.30859375 476.19140625 C56.25250888 493.20785507 32.34204232 507.35244556 8.50537109 508.12475586 C-10.42719003 508.38551823 -26.87752304 500.23952257 -43.46875 491.78125 C-52.89568533 488.63893822 -66.88395391 489.44723425 -75.88671875 493.4453125 C-76.73878906 493.88617188 -77.59085938 494.32703125 -78.46875 494.78125 C-79.53738281 495.32523437 -80.60601562 495.86921875 -81.70703125 496.4296875 C-84.0591028 497.62796199 -86.40935175 498.82982043 -88.7578125 500.03515625 C-106.1427146 508.54117404 -124.98269059 510.61882194 -143.44482422 504.50878906 C-161.11250976 498.15779957 -175.08834046 487.70355707 -188.46875 474.78125 C-189.25894531 474.04261719 -190.04914063 473.30398438 -190.86328125 472.54296875 C-197.14909816 466.5213543 -202.34975205 459.78695841 -207.46875 452.78125 C-208.18675781 451.80800781 -208.90476563 450.83476562 -209.64453125 449.83203125 C-238.27099039 409.7968553 -255.90972485 362.01699637 -264.46875 313.78125 C-264.63246094 312.88792969 -264.79617188 311.99460937 -264.96484375 311.07421875 C-269.68655606 284.42190874 -269.15057412 256.21019847 -263.46875 229.78125 C-263.29214844 228.95963379 -263.11554688 228.13801758 -262.93359375 227.29150391 C-254.86633171 191.57893 -234.31650065 156.0812242 -203.24609375 135.7421875 C-201.46875 134.78125 -201.46875 134.78125 -199.46875 134.78125 C-199.88125 134.13800781 -200.29375 133.49476563 -200.71875 132.83203125 C-201.95532707 130.89711936 -203.1851524 128.95788462 -204.41015625 127.015625 C-205.72645345 124.94751479 -207.06561334 122.89366794 -208.43359375 120.859375 C-220.81376914 101.93364154 -227.49157388 79.44547576 -227.70703125 56.86328125 C-227.715103 56.04300949 -227.72317474 55.22273773 -227.73149109 54.37760925 C-227.74522344 52.6574407 -227.75599327 50.93724614 -227.76391602 49.21704102 C-227.77550803 47.46272767 -227.79607185 45.70845152 -227.82543945 43.9543457 C-227.86805453 41.40291705 -227.88426651 38.85252117 -227.89453125 36.30078125 C-227.91203934 35.5204805 -227.92954742 34.74017975 -227.94758606 33.93623352 C-227.93257974 30.16825312 -227.61903724 28.01597131 -225.56713867 24.8112793 C-221.77423279 21.14193521 -218.25187166 21.59050157 -213.2265625 21.54296875 C-212.39519272 21.5331749 -211.56382294 21.52338104 -210.70726013 21.51329041 C-176.22800119 21.19096811 -176.22800119 21.19096811 -161.46875 25.78125 C-160.39657227 26.09473389 -160.39657227 26.09473389 -159.30273438 26.41455078 C-138.41911673 32.62105781 -121.23848793 43.89774528 -105.46875 58.78125 C-104.71980469 59.46574219 -103.97085938 60.15023437 -103.19921875 60.85546875 C-95.7315573 67.93078372 -90.14979492 76.25968262 -84.46875 84.78125 C-84.23800781 84.04712891 -84.00726563 83.31300781 -83.76953125 82.55664062 C-79.28316549 68.39710285 -74.77158562 54.7456654 -67.46875 41.78125 C-66.89511719 40.72292969 -66.32148438 39.66460937 -65.73046875 38.57421875 C-57.64617757 24.09683294 -43.57753145 1.92294223 -27.0234375 -3.66796875 C-17.2993282 -5.76445103 -8.64836122 -4.92863596 0 0 Z " fill="#EC5050" transform="translate(313.46875,4.21875)"/>
<path d="M0 0 C3.55964252 2.50493363 6.10891335 5.18626275 8.53125 8.78125 C9.3975 9.9259375 9.3975 9.9259375 10.28125 11.09375 C14.26094508 19.65009441 14.2478811 28.54100771 11.34375 37.40625 C8.55500048 42.59909393 5.09157871 46.98209547 1.234375 51.4296875 C-15.67544697 71.0177732 -25.30294123 93.7746747 -25.78515625 119.87109375 C-25.8163279 121.2878817 -25.8163279 121.2878817 -25.84812927 122.73329163 C-25.91312354 125.72837573 -25.972275 128.72354193 -26.03125 131.71875 C-26.07448297 133.75847178 -26.11809873 135.79818548 -26.16210938 137.83789062 C-26.26875305 142.81892788 -26.3701594 147.8000471 -26.46875 152.78125 C-23.9161575 150.87047088 -21.36426954 148.95875297 -18.8125 147.046875 C-18.09545898 146.5101416 -17.37841797 145.9734082 -16.63964844 145.42041016 C-12.72553394 142.48706348 -8.83686994 139.52517168 -4.96875 136.53125 C-0.66134934 133.42395344 3.81194102 130.88167985 8.53125 128.46875 C9.15966797 128.14293945 9.78808594 127.81712891 10.43554688 127.48144531 C19.54727777 123.00018974 28.60744096 121.23565852 38.71875 121.34375 C40.21595581 121.35402222 40.21595581 121.35402222 41.7434082 121.36450195 C68.94885267 121.94827224 92.34226905 136.19483089 110.91796875 155.2265625 C116.00894887 160.74107067 120.48310176 166.46445202 124.53125 172.78125 C125.09779297 173.66031006 125.09779297 173.66031006 125.67578125 174.55712891 C132.80934555 185.75286176 138.11453158 197.27447882 142.53125 209.78125 C142.81484375 210.57869629 143.0984375 211.37614258 143.390625 212.19775391 C154.60605774 244.48841314 155.64300571 280.2970829 149.53125 313.78125 C149.37027832 314.70244629 149.20930664 315.62364258 149.04345703 316.57275391 C138.90986532 373.45130951 115.35059738 432.03550608 74.53125 473.78125 C73.79777344 474.57660156 73.06429688 475.37195313 72.30859375 476.19140625 C56.25250888 493.20785507 32.34204232 507.35244556 8.50537109 508.12475586 C-10.42719003 508.38551823 -26.87752304 500.23952257 -43.46875 491.78125 C-52.89568533 488.63893822 -66.88395391 489.44723425 -75.88671875 493.4453125 C-76.73878906 493.88617188 -77.59085938 494.32703125 -78.46875 494.78125 C-79.53738281 495.32523437 -80.60601562 495.86921875 -81.70703125 496.4296875 C-84.0591028 497.62796199 -86.40935175 498.82982043 -88.7578125 500.03515625 C-106.1427146 508.54117404 -124.98269059 510.61882194 -143.44482422 504.50878906 C-161.11250976 498.15779957 -175.08834046 487.70355707 -188.46875 474.78125 C-189.25894531 474.04261719 -190.04914063 473.30398438 -190.86328125 472.54296875 C-197.14909816 466.5213543 -202.34975205 459.78695841 -207.46875 452.78125 C-208.18675781 451.80800781 -208.90476563 450.83476562 -209.64453125 449.83203125 C-238.27099039 409.7968553 -255.90972485 362.01699637 -264.46875 313.78125 C-264.63246094 312.88792969 -264.79617188 311.99460937 -264.96484375 311.07421875 C-269.68655606 284.42190874 -269.15057412 256.21019847 -263.46875 229.78125 C-263.29214844 228.95963379 -263.11554688 228.13801758 -262.93359375 227.29150391 C-254.86633171 191.57893 -234.31650065 156.0812242 -203.24609375 135.7421875 C-201.46875 134.78125 -201.46875 134.78125 -199.46875 134.78125 C-199.88125 134.13800781 -200.29375 133.49476563 -200.71875 132.83203125 C-201.95532707 130.89711936 -203.1851524 128.95788462 -204.41015625 127.015625 C-205.72645345 124.94751479 -207.06561334 122.89366794 -208.43359375 120.859375 C-220.81376914 101.93364154 -227.49157388 79.44547576 -227.70703125 56.86328125 C-227.715103 56.04300949 -227.72317474 55.22273773 -227.73149109 54.37760925 C-227.74522344 52.6574407 -227.75599327 50.93724614 -227.76391602 49.21704102 C-227.77550803 47.46272767 -227.79607185 45.70845152 -227.82543945 43.9543457 C-227.86805453 41.40291705 -227.88426651 38.85252117 -227.89453125 36.30078125 C-227.91203934 35.5204805 -227.92954742 34.74017975 -227.94758606 33.93623352 C-227.93257974 30.16825312 -227.61903724 28.01597131 -225.56713867 24.8112793 C-221.77423279 21.14193521 -218.25187166 21.59050157 -213.2265625 21.54296875 C-212.39519272 21.5331749 -211.56382294 21.52338104 -210.70726013 21.51329041 C-176.22800119 21.19096811 -176.22800119 21.19096811 -161.46875 25.78125 C-160.39657227 26.09473389 -160.39657227 26.09473389 -159.30273438 26.41455078 C-138.41911673 32.62105781 -121.23848793 43.89774528 -105.46875 58.78125 C-104.71980469 59.46574219 -103.97085938 60.15023437 -103.19921875 60.85546875 C-95.7315573 67.93078372 -90.14979492 76.25968262 -84.46875 84.78125 C-84.23800781 84.04712891 -84.00726563 83.31300781 -83.76953125 82.55664062 C-79.28316549 68.39710285 -74.77158562 54.7456654 -67.46875 41.78125 C-66.89511719 40.72292969 -66.32148438 39.66460937 -65.73046875 38.57421875 C-57.64617757 24.09683294 -43.57753145 1.92294223 -27.0234375 -3.66796875 C-17.2993282 -5.76445103 -8.64836122 -4.92863596 0 0 Z M-201.46875 160.78125 C-202.28472656 161.45671875 -203.10070312 162.1321875 -203.94140625 162.828125 C-215.76725839 172.84445726 -223.31409732 185.2437076 -230.46875 198.78125 C-230.96246094 199.68746094 -231.45617187 200.59367187 -231.96484375 201.52734375 C-239.13558565 215.13164848 -242.46681386 229.81802091 -245.46875 244.78125 C-245.84386719 246.62589844 -245.84386719 246.62589844 -246.2265625 248.5078125 C-249.88482292 270.50889979 -247.62348036 293.05422652 -243.46875 314.78125 C-243.14967748 316.6041558 -242.83066489 318.42707209 -242.51171875 320.25 C-232.42872915 374.3743106 -205.22980975 441.62381556 -158.33984375 473.9375 C-145.49694427 482.06476579 -130.16884276 490.40923529 -114.46875 487.78125 C-103.49182416 484.61828965 -92.88098092 479.89309039 -82.88183594 474.39648438 C-70.19293397 467.58712321 -53.30787037 468.01185 -39.59375 471.28125 C-33.70436408 473.08647481 -28.57610351 475.69751212 -23.23950195 478.69921875 C-10.96290695 485.52363174 1.89765718 490.51590556 15.8828125 486.6328125 C28.53207776 482.81159767 39.41949672 477.3577109 49.53125 468.78125 C50.32144531 468.11351562 51.11164063 467.44578125 51.92578125 466.7578125 C67.26189046 453.37796289 79.43842928 437.40489997 89.53125 419.78125 C90.00288574 418.9660791 90.47452148 418.1509082 90.96044922 417.31103516 C109.1340318 385.65875936 121.90973515 350.69209331 128.53125 314.78125 C128.7051123 313.83878418 128.87897461 312.89631836 129.05810547 311.92529297 C129.40337546 310.03732728 129.74577817 308.14883441 130.08496094 306.25976562 C130.43429168 304.31971873 130.7966774 302.38202159 131.1640625 300.4453125 C134.3913629 280.51801319 133.57922247 259.51565581 129.53125 239.78125 C129.38671387 239.04519531 129.24217773 238.30914062 129.09326172 237.55078125 C122.65274663 205.31254406 105.96686304 172.70365062 78.28466797 153.87451172 C63.50795951 144.66118667 46.53116564 139.1214253 29.09765625 142.43359375 C17.08450617 145.7938146 7.75084129 152.42479048 -1.74804688 160.21875 C-23.44498551 177.89609202 -44.65141253 182.70397376 -72.46875 180.78125 C-88.56322201 178.43647422 -101.05100585 169.66361082 -113.46875 159.78125 C-141.61977531 137.46815997 -173.96320414 135.80221009 -201.46875 160.78125 Z " fill="#010000" transform="translate(313.46875,4.21875)"/>
<path d="M0 0 C18.74302897 1.46875198 34.55783887 5.81428224 51 15 C51.98613281 15.54398438 52.97226563 16.08796875 53.98828125 16.6484375 C76.7371924 30.14634426 94.61256594 54.3421254 101.3125 79.875 C101.88367009 82.24792983 102.44733165 84.62269292 103 87 C103.22558594 87.7734375 103.45117188 88.546875 103.68359375 89.34375 C105.81958588 97.00385971 105.16280576 105.12201001 105 113 C99.73535955 109.71522434 94.78492775 106.09366172 89.89501953 102.28173828 C78.91306233 93.72888021 68.60215629 86.75661646 55 83 C53.74058594 82.64164062 52.48117188 82.28328125 51.18359375 81.9140625 C46.87104581 80.85658534 42.73950761 80.65665313 38.3125 80.6875 C37.53447021 80.68878906 36.75644043 80.69007812 35.95483398 80.69140625 C29.85591773 80.79164524 24.39458003 81.71873654 18.50390625 83.34375 C16 84 16 84 13 84 C11.2509425 82.07934821 9.72122786 80.20747699 8.1875 78.125 C7.74245117 77.52929199 7.29740234 76.93358398 6.83886719 76.31982422 C-6.68248346 57.99470645 -12.92849822 37.51395351 -15 15 C-11.6044622 16.46803376 -9.40758472 18.35412334 -6.81396484 20.97485352 C-5.99987152 21.79232559 -5.1857782 22.60979767 -4.34701538 23.45204163 C-3.47710968 24.33540695 -2.60720398 25.21877228 -1.7109375 26.12890625 C-0.8113028 27.03374252 0.08833191 27.9385788 1.01522827 28.87083435 C3.4017304 31.2721335 5.78408297 33.67738961 8.16412354 36.08508301 C11.52373316 39.48273124 14.88858207 42.87516261 18.25619507 46.26487732 C20.04851575 48.06949318 21.83815718 49.8767746 23.62490845 51.68690491 C24.43269745 52.50122482 25.24048645 53.31554474 26.07275391 54.15454102 C26.78460846 54.87464859 27.49646301 55.59475616 28.22988892 56.33668518 C30.72898942 58.68500724 31.82797446 58.98052541 35.3125 59.375 C39.07861282 59.28774245 39.07861282 59.28774245 41.9375 57 C44.0227695 53.96688073 45.00145265 51.9075236 44.70629883 48.18457031 C41.13736781 37.14592711 24.99874055 25.93070637 16.9375 17.9375 C13.73545035 14.76194746 10.53667298 11.58315059 7.33984375 8.40234375 C6.60249496 7.6732933 5.86514618 6.94424286 5.10545349 6.19309998 C4.4337764 5.5247261 3.7620993 4.85635223 3.07006836 4.16772461 C2.47544296 3.57833603 1.88081757 2.98894745 1.26817322 2.38169861 C0 1 0 1 0 0 Z " fill="#5BBA99" transform="translate(121,46)"/>
<path d="M0 0 C2.875 2.4375 2.875 2.4375 5 5 C5.495 5.495 5.495 5.495 6 6 C6.75215573 12.66195074 6.75215573 12.66195074 4.98388672 15.80761719 C3.54474209 17.58656701 2.03015921 19.23219498 0.4375 20.875 C-0.677488 22.10143799 -1.78947604 23.33061005 -2.8984375 24.5625 C-3.43694336 25.15289062 -3.97544922 25.74328125 -4.53027344 26.3515625 C-14.66937527 37.72352522 -22.24181894 52.63734234 -27 67 C-27.55300781 68.59134766 -27.55300781 68.59134766 -28.1171875 70.21484375 C-30.21747481 76.78399057 -31.40964772 83.13549921 -32.07421875 89.98046875 C-32.15864227 90.840495 -32.2430658 91.70052124 -32.33004761 92.58660889 C-33.30447498 103.28986192 -33.45802582 114.00973401 -33.625 124.75 C-33.66332162 126.82683672 -33.70238064 128.90365997 -33.7421875 130.98046875 C-33.83792794 135.98689606 -33.91869358 140.99323608 -34 146 C-40.6 146 -47.2 146 -54 146 C-54.07534061 139.26377686 -54.1291518 132.52781013 -54.16479492 125.79125977 C-54.17968653 123.50964068 -54.20000654 121.22804917 -54.22631836 118.9465332 C-54.69816216 76.91542748 -44.08555061 37.95517269 -14.79296875 6.640625 C-9.81082514 1.57768987 -7.47540851 -0.76021103 0 0 Z " fill="#55535A" transform="translate(300,20)"/>
<path d="M0 0 C4.34904613 2.8210029 7.07899947 6.5325577 9.875 10.8125 C10.30772217 11.47121094 10.74044434 12.12992188 11.1862793 12.80859375 C21.03260029 28.16279747 26.63785422 45.13860053 30 63 C30.20625 63.97195312 30.4125 64.94390625 30.625 65.9453125 C31.79434994 71.90574902 32.27941721 77.81385861 32.4375 83.875 C32.47190186 84.58889893 32.50630371 85.30279785 32.54174805 86.03833008 C32.57361152 89.97046699 32.03619375 92.43590091 29.59765625 95.4453125 C26.5631045 98.42966865 25.87716079 98.90069878 21.6875 99.375 C17.09401813 98.90786625 15.88552015 97.47959782 13 94 C12.505 93.505 12.505 93.505 12 93 C11.74801305 91.13079749 11.55512231 89.2535781 11.38671875 87.375 C8.91517777 61.29128783 4.71188489 37.38615344 -11.9375 16.1875 C-14.40793731 12.36955143 -14.74402127 10.46412763 -14 6 C-10.39432339 0.47129586 -6.60551903 -1.29730013 0 0 Z " fill="#040101" transform="translate(394,188)"/>
<path d="M0 0 C2.86830829 2.01391859 4.61592935 3.45434983 5.48046875 6.93359375 C5.75669245 10.88284615 5.25523948 12.63647711 2.9375 15.9375 C-0.57823396 18.40599406 -2.71383323 19 -7 19 C-10.16553069 17.70501017 -11.69376849 16.36747781 -13.875 13.75 C-15.39424009 10.03630199 -15.04821378 7.84345052 -14 4 C-9.92224421 -1.16515733 -6.24675788 -1.50783811 0 0 Z " fill="#080202" transform="translate(361,167)"/>
</svg>
